<?xml version="1.0" standalone="no"?>
<!DOCTYPE svg PUBLIC "-//W3C//DTD SVG 20010904//EN"
 "http://www.w3.org/TR/2001/REC-SVG-20010904/DTD/svg10.dtd">
<svg version="1.0" xmlns="http://www.w3.org/2000/svg"
 width="853.000000pt" height="1280.000000pt" viewBox="0 0 853.000000 1280.000000"
 preserveAspectRatio="xMidYMid meet">
<metadata>
Created by potrace 1.15, written by Peter Selinger 2001-2017
</metadata>
<g transform="translate(0.000000,1280.000000) scale(0.100000,-0.100000)"
fill="#000000" stroke="none">
<path d="M3970 10924 c-470 -56 -809 -181 -1126 -416 -729 -542 -1149 -1597
-1273 -3198 -36 -459 -39 -1394 -7 -1810 111 -1416 436 -2356 1021 -2959 240
-247 490 -415 799 -536 87 -34 134 -59 176 -95 32 -26 98 -70 147 -97 93 -53
252 -127 258 -121 2 2 -50 48 -116 102 -66 54 -118 100 -117 102 6 5 128 -24
140 -33 7 -5 78 -63 157 -128 143 -118 144 -118 235 -142 50 -12 95 -21 100
-20 5 2 -61 61 -148 133 l-157 129 37 3 c20 2 47 1 58 -2 12 -3 100 -71 196
-150 169 -140 177 -145 230 -151 30 -3 67 -8 83 -10 15 -3 27 -1 26 3 0 4 -79
70 -174 147 -96 77 -174 143 -174 148 -1 4 21 7 48 7 48 0 52 -2 215 -138 234
-192 220 -184 302 -180 l68 3 -191 157 c-197 160 -202 168 -127 168 30 0 62
-22 233 -162 l199 -163 53 3 c30 2 60 5 67 8 8 2 -74 76 -188 169 -189 155
-199 165 -173 171 15 3 35 8 45 10 10 3 91 -56 225 -166 l208 -170 45 6 c89
13 92 8 -130 189 -132 106 -205 172 -197 176 6 4 26 10 42 13 27 6 48 -8 240
-164 115 -93 218 -170 228 -170 26 0 97 22 96 29 0 3 -90 78 -200 166 -110 88
-205 166 -211 172 -8 10 -1 17 26 28 l36 15 216 -175 c118 -96 223 -175 232
-174 9 0 34 8 56 18 l39 17 -222 179 -221 179 36 19 36 18 222 -179 222 -179
48 24 47 24 -225 181 -225 182 32 22 32 22 40 -32 c22 -18 122 -98 223 -179
100 -81 187 -147 192 -147 12 0 80 43 80 50 0 3 -102 86 -225 185 l-225 180
27 22 c16 13 30 23 33 23 3 0 106 -81 230 -180 123 -99 227 -180 230 -180 3 0
21 13 40 30 31 26 33 31 19 42 -8 7 -111 89 -227 182 l-212 170 26 28 27 27
36 -28 c20 -16 124 -99 231 -185 l195 -156 32 32 c18 18 32 35 31 39 -2 4
-100 85 -218 179 -118 94 -219 176 -225 181 -6 6 0 19 17 36 l26 26 219 -173
c120 -95 224 -178 232 -184 10 -8 20 -3 42 22 16 18 29 36 29 40 -1 6 -420
344 -452 363 -8 5 -3 17 14 38 l26 30 233 -185 234 -185 27 33 c15 18 28 36
28 41 0 4 -102 89 -227 188 -126 99 -229 184 -230 187 -2 4 7 19 20 35 l22 27
232 -185 233 -185 25 38 c14 20 25 40 25 43 0 4 -103 88 -230 188 -126 100
-230 185 -230 189 0 6 16 33 36 60 1 2 107 -80 235 -182 l234 -184 22 36 c13
20 23 42 23 47 -1 6 -104 91 -230 190 -127 99 -230 183 -230 187 0 4 8 20 18
36 l17 29 220 -174 c121 -95 227 -178 236 -183 12 -7 20 0 37 35 l21 44 -226
178 c-125 98 -231 181 -236 184 -5 4 -1 22 10 42 l18 37 230 -180 c127 -99
233 -180 236 -180 3 0 14 18 24 40 14 31 15 43 6 54 -6 7 -109 89 -227 182
-119 92 -218 173 -220 179 -3 6 1 26 9 43 l13 32 232 -180 c128 -100 236 -179
240 -176 15 9 36 86 26 95 -5 4 -110 86 -232 181 -219 169 -224 174 -218 204
4 17 10 34 15 39 5 5 105 -66 233 -165 123 -96 228 -177 234 -180 6 -4 17 13
26 42 l16 50 -234 181 c-129 99 -234 184 -234 188 0 13 22 71 26 71 3 0 104
-77 225 -171 122 -94 227 -173 234 -175 13 -5 35 43 35 76 0 11 -88 85 -231
196 l-231 178 6 40 c4 22 9 42 10 44 2 2 108 -77 235 -175 128 -98 234 -178
238 -178 3 0 11 21 18 47 14 57 40 32 -244 248 l-213 163 6 41 c4 22 8 42 10
44 2 2 109 -78 237 -176 l234 -180 13 42 c7 22 11 47 10 55 -2 7 -106 93 -233
190 -228 175 -230 178 -227 212 2 19 7 38 12 42 4 5 110 -70 236 -167 147
-112 231 -171 235 -163 4 7 10 31 14 53 l6 42 -235 178 -235 179 6 35 c3 19 9
39 13 43 3 4 94 -59 201 -141 107 -81 210 -160 230 -175 l36 -27 10 56 10 55
-234 177 c-246 187 -244 184 -225 249 6 20 27 6 237 -153 248 -189 243 -187
244 -99 l0 40 -229 174 c-243 183 -242 182 -224 247 5 19 30 3 236 -153 127
-96 232 -173 233 -171 2 2 5 28 6 58 l4 54 -220 168 c-121 93 -225 172 -232
176 -8 5 -10 22 -5 54 l7 47 228 -171 c125 -94 229 -169 231 -167 2 2 6 27 10
55 l6 51 -236 178 c-199 151 -234 182 -230 199 3 12 6 33 6 49 0 26 12 18 220
-138 120 -91 226 -168 235 -171 12 -5 15 4 15 52 l-1 59 -229 170 -229 170 -1
49 c0 38 3 47 14 43 8 -3 111 -78 229 -166 117 -89 217 -161 220 -161 4 0 7
27 7 59 l0 59 -230 171 -230 171 0 50 c0 27 2 50 5 50 3 0 108 -77 233 -171
l227 -170 3 52 c2 28 1 57 -2 64 -2 7 -106 89 -230 181 l-226 168 0 53 0 53
118 -87 c107 -79 299 -222 330 -246 9 -7 12 5 12 55 l0 64 -230 169 -230 170
0 54 0 53 33 -24 c181 -136 416 -308 421 -308 3 0 6 26 6 59 l0 59 -230 168
-229 169 -1 53 c0 39 3 51 12 46 7 -4 109 -79 227 -166 118 -87 216 -156 219
-154 2 3 1 32 -3 65 l-7 61 -218 160 c-119 88 -223 166 -229 174 -7 8 -11 35
-9 60 l3 46 224 -165 c124 -90 226 -163 228 -161 2 1 0 31 -3 65 l-7 62 -211
155 c-116 85 -219 161 -228 169 -13 11 -18 29 -18 66 l0 50 33 -23 c17 -12
117 -84 221 -160 104 -76 191 -138 195 -138 3 0 4 28 1 62 l-5 62 -210 154
c-115 84 -217 159 -226 165 -20 15 -35 121 -16 114 7 -3 105 -72 218 -154 112
-82 209 -152 215 -156 11 -6 10 51 -1 108 -3 13 -87 81 -228 184 l-224 163 -6
51 c-4 28 -5 53 -2 55 2 2 101 -66 220 -153 119 -86 218 -155 221 -153 9 10
-14 131 -27 139 -8 4 -108 77 -224 161 l-210 154 -7 54 c-3 30 -5 56 -4 57 1
1 101 -69 221 -156 121 -88 221 -158 222 -157 1 1 -3 32 -9 70 l-11 67 -223
161 -222 160 -10 57 c-6 31 -9 57 -7 59 1 2 99 -67 218 -153 118 -85 217 -155
220 -155 3 0 2 15 -3 33 -4 17 -11 49 -14 69 -6 35 -20 47 -229 198 l-223 160
-10 60 c-6 33 -9 60 -8 60 2 0 99 -69 216 -154 117 -85 214 -153 216 -152 1 2
-5 35 -14 74 l-16 71 -219 157 c-169 121 -221 162 -225 183 -3 14 -10 41 -15
60 -5 19 -7 36 -6 37 1 1 90 -60 197 -137 230 -165 234 -168 227 -142 -3 10
-13 44 -22 75 l-16 58 -212 151 c-117 83 -213 153 -215 154 -1 1 -11 32 -22
69 -12 43 -15 64 -7 59 7 -4 99 -69 205 -145 106 -76 194 -138 197 -138 5 0
-43 141 -53 156 -4 5 -99 76 -212 156 l-205 147 -19 58 c-10 32 -21 64 -24 71
-2 7 83 -50 189 -126 107 -76 196 -138 198 -136 2 2 -15 43 -38 91 l-42 88
-191 135 -191 135 -34 74 c-19 40 -32 75 -31 76 2 2 78 -51 171 -116 92 -66
170 -119 172 -119 11 0 -102 174 -135 208 -19 20 -100 82 -180 138 -142 99
-146 103 -202 193 -31 50 -55 91 -53 91 3 0 42 -26 87 -58 46 -32 90 -62 98
-66 27 -13 -123 125 -202 187 -42 33 -98 87 -125 121 -26 33 -88 103 -138 155
-350 365 -775 579 -1325 666 -101 16 -570 29 -660 19z m362 -1724 c131 -96
138 -103 158 -156 11 -31 19 -60 18 -65 -2 -4 -87 54 -190 129 l-187 137 26
27 c15 16 29 28 32 28 3 0 68 -45 143 -100z m-14 -215 l227 -166 12 -67 c7
-37 17 -164 23 -282 6 -118 15 -278 20 -355 5 -77 12 -522 15 -990 3 -467 8
-1115 11 -1440 10 -956 -17 -1460 -97 -1753 -26 -98 -78 -232 -90 -232 -5 0
-106 77 -224 172 -210 168 -214 172 -221 215 -3 24 -4 46 -2 48 3 3 101 -72
218 -165 117 -94 216 -170 220 -170 4 0 3 21 -1 47 -4 27 -8 55 -8 64 -1 9
-104 99 -231 199 l-230 183 0 44 c0 39 2 43 18 34 9 -6 109 -84 222 -174 113
-91 206 -164 207 -163 2 1 0 31 -4 67 l-6 64 -228 180 -229 180 0 48 0 48 68
-54 c265 -211 359 -284 370 -291 9 -5 12 7 12 53 l0 60 -230 182 -230 181 0
45 c0 33 3 42 13 37 6 -5 105 -81 219 -171 114 -90 210 -163 213 -163 3 0 5
26 5 58 l0 59 -219 171 c-120 95 -224 178 -230 186 -7 8 -11 33 -9 55 l3 40
222 -174 c122 -96 224 -175 227 -175 3 0 6 26 6 58 l0 58 -230 180 -230 179 0
49 c0 46 1 48 18 34 44 -38 431 -338 436 -338 3 0 6 26 6 58 l0 58 -230 180
-230 179 0 49 0 48 43 -34 c94 -77 407 -318 412 -318 3 0 5 26 5 58 l0 59
-230 178 -230 178 0 48 0 49 225 -175 c124 -96 227 -175 230 -175 3 0 5 26 5
58 l0 59 -230 178 -230 178 0 49 0 48 138 -107 c75 -59 176 -137 224 -175 48
-37 90 -68 93 -68 3 0 5 26 5 59 l0 59 -230 177 -230 177 0 49 0 48 218 -167
c119 -93 223 -172 230 -176 9 -5 12 7 12 52 l0 60 -230 177 -230 178 0 48 0
48 218 -167 c119 -92 223 -171 230 -175 9 -6 12 6 12 52 l0 60 -230 177 -230
177 0 48 0 48 228 -174 227 -174 3 51 c2 28 1 56 -2 63 -2 7 -106 91 -230 186
l-226 172 0 49 0 50 63 -49 c34 -27 137 -107 230 -177 l167 -127 0 63 0 63
-230 174 -230 174 0 49 0 49 224 -171 c124 -93 227 -170 230 -170 3 0 6 26 6
58 l0 57 -230 175 -230 175 0 48 c0 38 3 47 13 40 56 -46 439 -333 443 -333 2
0 4 27 4 59 l0 60 -230 173 -230 173 0 48 0 48 28 -19 c15 -11 117 -88 227
-171 l200 -150 3 55 c2 31 -1 61 -7 67 -5 7 -109 86 -230 177 l-220 165 -1 48
c0 36 3 46 13 41 6 -5 107 -79 223 -166 116 -87 214 -158 217 -158 4 0 7 26 7
58 l0 57 -229 170 -230 170 0 48 c-1 26 1 47 4 47 3 0 104 -74 225 -165 121
-91 221 -165 224 -165 2 0 6 26 8 57 l3 57 -232 173 c-243 181 -242 180 -225
240 6 20 27 7 232 -147 124 -92 226 -167 226 -167 1 1 5 27 8 57 l7 55 -236
175 -236 175 6 40 c3 21 7 41 9 43 2 2 102 -69 221 -158 120 -89 223 -164 230
-166 8 -3 12 12 13 53 l2 58 -230 169 -230 170 0 44 c0 35 3 43 15 38 9 -3
110 -76 226 -162 116 -85 217 -158 224 -160 13 -6 30 96 17 107 -4 3 -109 81
-234 173 -147 108 -228 174 -227 184 1 10 4 29 8 45 6 27 7 27 239 -144 128
-94 234 -170 236 -168 1 2 7 26 13 52 l11 48 -112 83 c-61 45 -168 123 -237
174 l-127 93 8 35 c5 20 11 38 14 41 3 3 110 -72 238 -166 l233 -172 11 28
c30 74 44 57 -211 243 -129 95 -235 178 -235 186 0 15 21 64 27 64 3 0 107
-74 231 -165z m-115 -5226 c201 -161 185 -144 156 -168 -13 -11 -28 -20 -32
-21 -4 0 -63 44 -131 99 -105 85 -124 104 -135 141 -7 23 -15 48 -18 56 -3 8
-2 14 1 14 4 0 75 -55 159 -121z"/>
</g>
</svg>
